HIERARCHY
ROOT Hips
{
    OFFSET 0.0 0.0 0.0
    CHANNELS 6 Xposition Yposition Zposition Zrotation Xrotation Yrotation
    JOINT Spine
    {
        OFFSET 0.0 5.0 0.0
        CHANNELS 3 Zrotation Xrotation Yrotation
        JOINT Chest
        {
            OFFSET 0.0 5.0 0.0
            CHANNELS 3 Zrotation Xrotation Yrotation
            JOINT Neck
            {
                OFFSET 0.0 8.0 0.0
                CHANNELS 3 Zrotation Xrotation Yrotation
                JOINT Head
                {
                    OFFSET 0.0 5.0 0.0
                    CHANNELS 3 Zrotation Xrotation Yrotation
                    End Site
                    {
                        OFFSET 0.0 3.0 0.0
                    }
                }
            }
            JOINT LeftShoulder
            {
                OFFSET -5.0 0.0 0.0
                CHANNELS 3 Zrotation Xrotation Yrotation
                JOINT LeftArm
                {
                    OFFSET 0.0 -10.0 0.0
                    CHANNELS 3 Zrotation Xrotation Yrotation
                    JOINT LeftForeArm
                    {
                        OFFSET 0.0 -10.0 0.0
                        CHANNELS 3 Zrotation Xrotation Yrotation
                        End Site
                        {
                            OFFSET 0.0 -3.0 0.0
                        }
                    }
                }
            }
        }
    }
}

MOTION
Frames: 26
Frame Time: 0.033333
970.000000 442.938926 116.391723 0.000000 0.000000 0.000000 0.000000 0.000000 0.000000 29.678605 -13.442226 0.000000 180.000000 -6.413523 0.000000 29.744881 3.623161 -0.000000 150.255119 -10.759529 30.000000 19.983107 3.688003 0.000000 18.000000 -0.036663 0.000000
1354.522934 467.411410 120.779706 0.000000 0.000000 0.000000 0.000000 0.000000 0.000000 150.622570 -14.399469 4.973798 -29.377430 11.285919 4.973798 140.176400 1.337978 3.759997 -12.221629 1.220332 29.763441 132.794256 7.429928 -3.759997 -2.626015 0.109056 0.313953
969.997807 442.887864 111.252518 0.000000 0.000000 0.000000 0.000000 0.000000 0.000000 31.061399 -29.842676 9.635073 180.000000 13.635198 9.635073 30.285790 -11.674911 7.460697 149.714210 5.514802 29.057495 19.151579 -4.242695 -7.460697 18.000000 0.465134 0.626666
1246.736984 514.278152 127.371371 0.000000 0.000000 0.000000 0.000000 0.000000 0.000000 143.557092 27.053750 13.690942 -36.442908 -5.105459 13.690942 133.761037 -2.987714 11.043737 -156.950665 -6.569625 27.893295 0.000000 0.000000 0.000000 1.928484 0.470667 0.936907
1245.221100 458.637464 116.264410 0.000000 0.000000 0.000000 0.000000 0.000000 0.000000 160.701064 -1.766528 16.886559 -19.298936 16.791190 16.886559 140.193827 -2.218444 14.452610 -157.554825 -5.457528 26.289200 29.500467 6.122296 -14.452610 -15.049953 -0.612230 1.243449
1257.365570 418.514181 122.861023 0.000000 0.000000 0.000000 0.000000 0.000000 0.000000 -143.710676 8.822149 19.021130 36.289324 -11.867790 19.021130 163.220413 6.159834 17.633558 11.688054 -3.727874 24.270510 152.038385 -0.047798 -17.633558 -2.339948 0.088349 1.545085
1275.099564 408.163741 93.979591 0.000000 0.000000 0.000000 0.000000 0.000000 0.000000 -132.929531 1.248846 19.960535 47.070469 -13.458428 19.960535 173.491912 6.644217 20.536413 -160.709681 -5.148475 21.869059 33.138793 5.271009 -20.536413 -14.686121 -0.527101 1.840623
1290.611115 384.880857 86.149333 0.000000 0.000000 0.000000 0.000000 0.000000 0.000000 -132.705235 14.214574 19.645745 47.294765 -10.616887 19.645745 -173.778854 3.447310 23.115397 20.496835 -3.334476 19.122720 -161.220290 -4.522903 -23.115397 1.723235 0.359567 2.128896
1302.817154 380.305352 99.001106 0.000000 0.000000 0.000000 0.000000 0.000000 0.000000 -131.493915 -1.238919 18.096541 48.506085 3.763497 18.096541 -165.393697 3.432124 25.329838 23.154815 4.386974 16.074804 -178.200316 0.004517 -25.329838 0.138141 -0.094319 2.408768
1304.997711 379.563582 83.967206 0.000000 0.000000 0.000000 0.000000 0.000000 0.000000 -126.727972 -1.363201 15.410265 53.272028 -3.443420 15.410265 -160.219593 3.351174 27.144812 28.448880 -1.689682 12.773379 -174.368770 0.951211 -27.144812 0.079526 -0.196414 2.679134
1311.668472 386.890390 94.611595 0.000000 0.000000 0.000000 0.000000 0.000000 0.000000 -122.308728 -5.420128 11.755705 57.691272 -5.395334 11.755705 -158.801130 6.910481 28.531695 150.942637 9.345068 9.270510 -154.878332 -4.995256 -28.531695 2.695409 0.615853 2.938926
1305.131836 395.180186 85.250736 0.000000 0.000000 0.000000 0.000000 0.000000 0.000000 -125.112810 -3.369808 7.362491 54.887190 6.540666 7.362491 -146.487292 -2.903550 29.468618 -175.167369 -3.336127 5.621439 -159.224034 -3.855941 -29.468618 1.782042 0.626495 3.187120
1296.320457 392.734526 87.914316 0.000000 0.000000 0.000000 0.000000 0.000000 0.000000 -131.035750 -3.755432 2.506665 48.964250 2.763124 2.506665 -128.969563 1.703798 29.940802 38.856147 5.860161 1.883716 -134.776850 -3.933006 -29.940802 3.458429 0.183180 3.422736
1306.963577 386.612041 87.714890 0.000000 0.000000 0.000000 0.000000 0.000000 0.000000 -124.469622 2.817554 -2.506665 55.530378 -4.814623 -2.506665 -109.994856 2.944397 29.940802 37.691309 -2.629874 -1.883716 -118.274788 0.768285 -29.940802 5.098336 0.061889 3.644843
969.892723 442.572198 57.319189 0.000000 0.000000 0.000000 0.000000 0.000000 0.000000 41.287575 -8.721016 -7.362491 180.000000 -3.572740 -7.362491 30.974696 4.909214 29.468618 149.025304 -11.360370 -5.621439 15.072869 0.200743 -29.468618 18.000000 0.166878 3.852566
969.876883 442.545207 63.447417 0.000000 0.000000 0.000000 0.000000 0.000000 0.000000 42.241956 -31.059756 -11.755705 180.000000 -3.207458 -11.755705 30.826133 14.672087 28.531695 149.173867 6.461955 -9.270510 14.823070 -5.389834 -28.531695 18.000000 0.335416 4.045085
969.859960 442.518116 46.444435 0.000000 0.000000 0.000000 0.000000 0.000000 0.000000 43.199779 5.694650 -15.410265 180.000000 15.626697 -15.410265 30.649504 2.985096 27.144812 149.350496 7.597600 -12.773379 14.587557 5.113786 -27.144812 18.000000 -0.206962 4.221640
969.841956 442.490926 62.492756 0.000000 0.000000 0.000000 0.000000 0.000000 0.000000 44.157210 -17.347623 -18.096541 180.000000 22.828959 -18.096541 30.446417 17.894717 25.329838 149.553583 11.679308 -16.074804 14.366154 -1.367281 -25.329838 18.000000 0.165315 4.381533
969.822873 442.463637 74.287463 0.000000 0.000000 0.000000 0.000000 0.000000 0.000000 45.110117 -25.098808 -19.645745 180.000000 -13.034343 -19.645745 30.218633 15.374566 23.115397 149.781367 1.018438 -19.122720 14.158653 1.486539 -23.115397 18.000000 0.110211 4.524135
969.802712 442.436251 61.902053 0.000000 0.000000 0.000000 0.000000 0.000000 0.000000 46.054109 8.642213 -19.960535 180.000000 -4.145665 -19.960535 29.968037 2.655556 20.536413 150.031963 -7.867456 -21.869059 13.964823 4.994144 -20.536413 18.000000 -0.425884 4.648882
1187.040939 541.658249 58.703539 0.000000 0.000000 0.000000 0.000000 0.000000 0.000000 82.806623 -2.112733 -19.021130 -97.193377 21.174021 -19.021130 45.395981 -4.696668 17.633558 -156.144455 -1.860072 -24.270510 0.000000 0.000000 0.000000 0.000000 0.000000 0.000000
1182.242889 522.024286 59.668252 0.000000 0.000000 0.000000 0.000000 0.000000 0.000000 -105.721938 3.050201 -16.886559 74.278062 -16.747837 -16.886559 -155.708006 -2.105208 14.452610 -157.302521 -2.778779 -26.289200 0.000000 0.000000 0.000000 2.684983 0.233451 4.842916
1180.914459 527.065626 39.121178 0.000000 0.000000 0.000000 0.000000 0.000000 0.000000 88.055617 -4.638226 -13.690942 -91.944383 -1.433503 -13.690942 -158.862018 -1.787735 11.043737 -151.747289 -1.872524 -27.893295 0.000000 0.000000 0.000000 0.000000 0.000000 0.000000
1236.800194 541.387432 50.280181 0.000000 0.000000 0.000000 0.000000 0.000000 0.000000 -85.588400 -2.785800 -9.635073 94.411600 10.090188 -9.635073 -159.297106 -4.533964 7.460697 -157.915391 -2.377812 -29.057495 26.607362 1.872488 -7.460697 14.926890 0.615379 4.960574
1161.066513 575.006626 48.724986 0.000000 0.000000 0.000000 0.000000 0.000000 0.000000 -81.021168 1.539018 -4.973798 98.978832 2.135573 -4.973798 -102.851701 4.761656 3.759997 -157.041007 -2.202665 -29.763441 21.429890 2.832825 -3.759997 10.859432 -0.416753 4.990134
1255.636253 512.645942 57.492585 0.000000 0.000000 0.000000 0.000000 0.000000 0.000000 77.832564 3.523553 -0.000000 -102.167436 -5.448848 -0.000000 -158.264834 -2.276039 0.000000 -130.745502 -6.086784 -30.000000 -157.699225 -1.909966 -0.000000 0.000000 0.000000 0.000000
